P3 10 10 255 136 153 255 101 204 255 101 204 255 101 204 255 101 204 255 222 187 85 222 187 85 101 204 255 101 204 255 101 204 255 136 153 255 136 153 255 136 153 255 101 204 255 101 204 255 101 204 255 136 153 255 101 204 255 101 204 255 101 204 255 136 153 255 136 153 255 136 153 255 136 153 255 101 204 255 101 204 255 136 153 255 101 204 255 101 204 255 222 187 85 170 170 153 136 153 255 136 153 255 136 153 255 237 84 153 237 84 153 101 204 255 101 204 255 244 205 52 101 204 255 170 170 153 136 153 255 136 153 255 237 84 153 237 84 153 237 84 153 101 204 255 244 205 52 244 205 52 101 204 255 136 153 255 170 170 153 237 84 153 237 84 153 237 84 153 237 84 153 244 205 52 244 205 52 237 84 153 101 204 255 170 170 153 237 84 153 237 84 153 237 84 153 237 84 153 237 84 153 244 205 52 237 84 153 237 84 153 101 204 255 237 84 153 237 84 153 237 84 153 237 84 153 237 84 153 237 84 153 237 84 153 237 84 153 237 84 153 237 84 153 187 170 102 237 84 153 136 153 255 237 84 153 237 84 153 237 84 153 237 84 153 237 84 153 237 84 153 244 205 52 187 170 102 187 170 102 187 170 102 237 84 153 237 84 153 237 84 153 237 84 153 237 84 153 244 205 52 244 205 52
