P3 10 10 255 237 84 153 237 84 153 237 84 153 244 205 52 244 205 52 244 205 52 244 205 52 244 205 52 237 84 153 237 84 153 237 84 153 237 84 153 237 84 153 244 205 52 244 205 52 244 205 52 244 205 52 244 205 52 244 205 52 237 84 153 237 84 153 237 84 153 237 84 153 244 205 52 244 205 52 244 205 52 244 205 52 244 205 52 237 84 153 237 84 153 244 205 52 244 205 52 237 84 153 244 205 52 244 205 52 244 205 52 244 205 52 244 205 52 237 84 153 237 84 153 244 205 52 244 205 52 244 205 52 244 205 52 237 84 153 237 84 153 237 84 153 237 84 153 237 84 153 237 84 153 244 205 52 244 205 52 244 205 52 244 205 52 244 205 52 237 84 153 237 84 153 237 84 153 237 84 153 237 84 153 244 205 52 244 205 52 244 205 52 244 205 52 237 84 153 237 84 153 237 84 153 237 84 153 237 84 153 237 84 153 244 205 52 244 205 52 244 205 52 237 84 153 237 84 153 237 84 153 237 84 153 237 84 153 237 84 153 237 84 153 237 84 153 237 84 153 237 84 153 244 205 52 237 84 153 237 84 153 237 84 153 237 84 153 237 84 153 237 84 153 237 84 153 237 84 153 237 84 153 237 84 153 237 84 153 237 84 153 237 84 153 237 84 153 237 84 153 237 84 153
