P3 10 10 255 136 153 255 136 153 255 136 153 255 136 153 255 170 86 153 136 153 255 187 170 102 187 170 102 222 187 85 187 170 102 136 153 255 136 153 255 136 153 255 136 153 255 136 153 255 136 153 255 187 170 102 222 187 85 222 187 85 222 187 85 222 187 85 136 153 255 119 204 85 136 153 255 136 153 255 136 153 255 136 153 255 222 187 85 101 204 255 222 187 85 119 204 85 119 204 85 136 153 255 119 204 85 119 204 85 136 153 255 237 84 153 222 187 85 101 204 255 101 204 255 119 204 85 119 204 85 119 204 85 119 204 85 78 154 255 237 84 153 237 84 153 237 84 153 101 204 255 101 204 255 170 170 153 170 170 153 187 85 68 187 85 68 102 103 188 237 84 153 237 84 153 101 204 255 101 204 255 101 204 255 170 170 153 237 84 153 78 154 255 187 85 68 187 85 68 237 84 153 237 84 153 120 103 238 244 205 52 244 205 52 237 84 153 170 170 153 237 84 153 187 85 68 187 85 68 187 85 68 244 205 52 120 103 238 244 205 52 244 205 52 237 84 153 237 84 153 187 170 102 237 84 153 170 86 153 187 85 68 244 205 52 244 205 52 244 205 52 244 205 52 136 153 255 187 170 102 187 170 102 170 86 153 101 204 255 187 85 68 244 205 52 244 205 52 244 205 52 244 205 52
