P3 10 10 255 101 204 255 187 170 102 187 170 102 187 170 102 187 170 102 187 170 102 101 204 255 101 204 255 101 204 255 101 204 255 101 204 255 187 170 102 187 170 102 187 170 102 187 170 102 187 170 102 101 204 255 101 204 255 101 204 255 101 204 255 170 170 153 187 170 102 187 170 102 187 170 102 244 205 52 101 204 255 101 204 255 101 204 255 101 204 255 244 205 52 187 170 102 187 170 102 187 170 102 244 205 52 187 170 102 244 205 52 101 204 255 101 204 255 101 204 255 244 205 52 187 170 102 170 170 153 187 170 102 187 170 102 244 205 52 244 205 52 244 205 52 244 205 52 244 205 52 101 204 255 237 84 153 237 84 153 187 170 102 170 170 153 244 205 52 244 205 52 244 205 52 237 84 153 237 84 153 237 84 153 237 84 153 170 170 153 170 170 153 244 205 52 244 205 52 244 205 52 244 205 52 244 205 52 237 84 153 237 84 153 237 84 153 237 84 153 244 205 52 244 205 52 244 205 52 237 84 153 237 84 153 237 84 153 237 84 153 237 84 153 237 84 153 244 205 52 237 84 153 237 84 153 237 84 153 237 84 153 244 205 52 237 84 153 244 205 52 237 84 153 237 84 153 237 84 153 237 84 153 237 84 153 237 84 153 237 84 153 237 84 153 244 205 52 237 84 153 237 84 153
